<mxfile host="app.diagrams.net" modified="2022-12-20T09:31:49.087Z" agent="5.0 (Windows NT 10.0; Win64; x64) AppleWebKit/537.36 (KHTML, like Gecko) Chrome/108.0.0.0 Safari/537.36" etag="vsBVLpbqJIZgyJ4Aqljf" version="20.7.4" type="github">
  <diagram id="C5RBs43oDa-KdzZeNtuy" name="Page-1">
    <mxGraphModel dx="1395" dy="737" grid="1" gridSize="10" guides="1" tooltips="1" connect="1" arrows="1" fold="1" page="1" pageScale="1" pageWidth="827" pageHeight="1169" math="0" shadow="0">
      <root>
        <mxCell id="WIyWlLk6GJQsqaUBKTNV-0" />
        <mxCell id="WIyWlLk6GJQsqaUBKTNV-1" parent="WIyWlLk6GJQsqaUBKTNV-0" />
        <mxCell id="LqbdgGTpBJYTIxLhGGH1-111" value="" style="edgeStyle=orthogonalEdgeStyle;rounded=0;orthogonalLoop=1;jettySize=auto;html=1;fontSize=14;endArrow=block;endFill=0;" parent="WIyWlLk6GJQsqaUBKTNV-1" source="WIyWlLk6GJQsqaUBKTNV-3" target="LqbdgGTpBJYTIxLhGGH1-37" edge="1">
          <mxGeometry relative="1" as="geometry" />
        </mxCell>
        <mxCell id="WIyWlLk6GJQsqaUBKTNV-3" value="&lt;font style=&quot;font-size: 14px;&quot;&gt;Start&lt;/font&gt;" style="rounded=1;whiteSpace=wrap;html=1;fontSize=12;glass=0;strokeWidth=1;shadow=0;fillColor=none;" parent="WIyWlLk6GJQsqaUBKTNV-1" vertex="1">
          <mxGeometry x="150" y="30" width="161" height="40" as="geometry" />
        </mxCell>
        <mxCell id="LqbdgGTpBJYTIxLhGGH1-110" style="edgeStyle=orthogonalEdgeStyle;rounded=0;orthogonalLoop=1;jettySize=auto;html=1;exitX=0;exitY=0.5;exitDx=0;exitDy=0;entryX=0.5;entryY=0;entryDx=0;entryDy=0;fontSize=14;endArrow=block;endFill=0;" parent="WIyWlLk6GJQsqaUBKTNV-1" source="LqbdgGTpBJYTIxLhGGH1-22" target="LqbdgGTpBJYTIxLhGGH1-24" edge="1">
          <mxGeometry relative="1" as="geometry" />
        </mxCell>
        <mxCell id="P75S9K7HYXraYfd_pyPu-3" style="edgeStyle=orthogonalEdgeStyle;rounded=0;orthogonalLoop=1;jettySize=auto;html=1;exitX=1;exitY=0.5;exitDx=0;exitDy=0;entryX=0.5;entryY=0;entryDx=0;entryDy=0;endArrow=block;endFill=0;" parent="WIyWlLk6GJQsqaUBKTNV-1" source="LqbdgGTpBJYTIxLhGGH1-22" target="LqbdgGTpBJYTIxLhGGH1-45" edge="1">
          <mxGeometry relative="1" as="geometry" />
        </mxCell>
        <mxCell id="LqbdgGTpBJYTIxLhGGH1-22" value="&lt;font style=&quot;font-size: 14px;&quot;&gt;Is the PLC connected&lt;/font&gt;" style="rhombus;whiteSpace=wrap;html=1;fontSize=12;fillColor=none;" parent="WIyWlLk6GJQsqaUBKTNV-1" vertex="1">
          <mxGeometry x="175" y="270" width="111" height="80" as="geometry" />
        </mxCell>
        <mxCell id="LqbdgGTpBJYTIxLhGGH1-121" style="edgeStyle=orthogonalEdgeStyle;rounded=0;orthogonalLoop=1;jettySize=auto;html=1;exitX=0.5;exitY=1;exitDx=0;exitDy=0;fontSize=14;endArrow=block;endFill=0;" parent="WIyWlLk6GJQsqaUBKTNV-1" source="LqbdgGTpBJYTIxLhGGH1-24" edge="1">
          <mxGeometry relative="1" as="geometry">
            <mxPoint x="110" y="710" as="targetPoint" />
          </mxGeometry>
        </mxCell>
        <mxCell id="LqbdgGTpBJYTIxLhGGH1-24" value="&lt;font style=&quot;font-size: 14px;&quot;&gt;Print error message&lt;/font&gt;" style="rounded=0;whiteSpace=wrap;html=1;fillColor=none;" parent="WIyWlLk6GJQsqaUBKTNV-1" vertex="1">
          <mxGeometry x="50" y="370" width="120" height="40" as="geometry" />
        </mxCell>
        <mxCell id="LqbdgGTpBJYTIxLhGGH1-29" value="No" style="text;html=1;strokeColor=none;fillColor=none;align=left;verticalAlign=middle;whiteSpace=wrap;rounded=0;fontSize=12;" parent="WIyWlLk6GJQsqaUBKTNV-1" vertex="1">
          <mxGeometry x="110" y="288" width="60" height="30" as="geometry" />
        </mxCell>
        <mxCell id="LqbdgGTpBJYTIxLhGGH1-33" value="Yes" style="text;html=1;strokeColor=none;fillColor=none;align=right;verticalAlign=middle;whiteSpace=wrap;rounded=0;fontSize=12;" parent="WIyWlLk6GJQsqaUBKTNV-1" vertex="1">
          <mxGeometry x="405" y="368" width="60" height="30" as="geometry" />
        </mxCell>
        <mxCell id="P75S9K7HYXraYfd_pyPu-7" style="edgeStyle=orthogonalEdgeStyle;rounded=0;orthogonalLoop=1;jettySize=auto;html=1;exitX=0.5;exitY=1;exitDx=0;exitDy=0;endArrow=block;endFill=0;" parent="WIyWlLk6GJQsqaUBKTNV-1" source="LqbdgGTpBJYTIxLhGGH1-34" edge="1">
          <mxGeometry relative="1" as="geometry">
            <mxPoint x="235" y="710" as="targetPoint" />
          </mxGeometry>
        </mxCell>
        <mxCell id="LqbdgGTpBJYTIxLhGGH1-34" value="&lt;font style=&quot;font-size: 14px;&quot;&gt;Print error message&lt;/font&gt;" style="rounded=0;whiteSpace=wrap;html=1;fillColor=none;" parent="WIyWlLk6GJQsqaUBKTNV-1" vertex="1">
          <mxGeometry x="175" y="510" width="120" height="40" as="geometry" />
        </mxCell>
        <mxCell id="LqbdgGTpBJYTIxLhGGH1-41" style="edgeStyle=orthogonalEdgeStyle;rounded=0;orthogonalLoop=1;jettySize=auto;html=1;exitX=0.5;exitY=1;exitDx=0;exitDy=0;entryX=0.5;entryY=0;entryDx=0;entryDy=0;fontSize=14;endArrow=block;endFill=0;" parent="WIyWlLk6GJQsqaUBKTNV-1" source="LqbdgGTpBJYTIxLhGGH1-37" edge="1">
          <mxGeometry relative="1" as="geometry">
            <mxPoint x="230.5" y="190" as="targetPoint" />
          </mxGeometry>
        </mxCell>
        <mxCell id="LqbdgGTpBJYTIxLhGGH1-37" value="&lt;font style=&quot;font-size: 14px;&quot;&gt;Startup Sequence&lt;/font&gt;" style="rounded=0;whiteSpace=wrap;html=1;fillColor=none;" parent="WIyWlLk6GJQsqaUBKTNV-1" vertex="1">
          <mxGeometry x="150" y="110" width="161" height="40" as="geometry" />
        </mxCell>
        <mxCell id="P75S9K7HYXraYfd_pyPu-6" style="edgeStyle=orthogonalEdgeStyle;rounded=0;orthogonalLoop=1;jettySize=auto;html=1;exitX=0;exitY=0.5;exitDx=0;exitDy=0;entryX=0.5;entryY=0;entryDx=0;entryDy=0;endArrow=block;endFill=0;" parent="WIyWlLk6GJQsqaUBKTNV-1" source="LqbdgGTpBJYTIxLhGGH1-45" target="P75S9K7HYXraYfd_pyPu-4" edge="1">
          <mxGeometry relative="1" as="geometry" />
        </mxCell>
        <mxCell id="P75S9K7HYXraYfd_pyPu-10" style="edgeStyle=orthogonalEdgeStyle;rounded=0;orthogonalLoop=1;jettySize=auto;html=1;exitX=1;exitY=0.5;exitDx=0;exitDy=0;entryX=0.5;entryY=0;entryDx=0;entryDy=0;endArrow=block;endFill=0;" parent="WIyWlLk6GJQsqaUBKTNV-1" source="LqbdgGTpBJYTIxLhGGH1-45" target="P75S9K7HYXraYfd_pyPu-9" edge="1">
          <mxGeometry relative="1" as="geometry" />
        </mxCell>
        <mxCell id="LqbdgGTpBJYTIxLhGGH1-45" value="&lt;font style=&quot;font-size: 14px;&quot;&gt;Is the robot connected&lt;/font&gt;" style="rhombus;whiteSpace=wrap;html=1;fontSize=12;fillColor=none;" parent="WIyWlLk6GJQsqaUBKTNV-1" vertex="1">
          <mxGeometry x="294" y="350" width="111" height="80" as="geometry" />
        </mxCell>
        <mxCell id="LqbdgGTpBJYTIxLhGGH1-60" value="No" style="text;html=1;strokeColor=none;fillColor=none;align=left;verticalAlign=middle;whiteSpace=wrap;rounded=0;fontSize=12;" parent="WIyWlLk6GJQsqaUBKTNV-1" vertex="1">
          <mxGeometry x="234" y="368" width="60" height="30" as="geometry" />
        </mxCell>
        <mxCell id="LqbdgGTpBJYTIxLhGGH1-74" value="Yes" style="text;html=1;strokeColor=none;fillColor=none;align=right;verticalAlign=middle;whiteSpace=wrap;rounded=0;fontSize=12;" parent="WIyWlLk6GJQsqaUBKTNV-1" vertex="1">
          <mxGeometry x="291" y="288" width="60" height="30" as="geometry" />
        </mxCell>
        <mxCell id="LqbdgGTpBJYTIxLhGGH1-123" value="" style="endArrow=block;html=1;rounded=0;fontSize=14;endFill=0;" parent="WIyWlLk6GJQsqaUBKTNV-1" edge="1">
          <mxGeometry width="50" height="50" relative="1" as="geometry">
            <mxPoint x="456" y="710" as="sourcePoint" />
            <mxPoint x="230" y="170" as="targetPoint" />
            <Array as="points">
              <mxPoint x="30" y="710" />
              <mxPoint x="30" y="170" />
            </Array>
          </mxGeometry>
        </mxCell>
        <mxCell id="P75S9K7HYXraYfd_pyPu-1" style="edgeStyle=orthogonalEdgeStyle;rounded=0;orthogonalLoop=1;jettySize=auto;html=1;exitX=0.5;exitY=1;exitDx=0;exitDy=0;entryX=0.5;entryY=0;entryDx=0;entryDy=0;endArrow=block;endFill=0;" parent="WIyWlLk6GJQsqaUBKTNV-1" source="P75S9K7HYXraYfd_pyPu-0" target="LqbdgGTpBJYTIxLhGGH1-22" edge="1">
          <mxGeometry relative="1" as="geometry" />
        </mxCell>
        <mxCell id="P75S9K7HYXraYfd_pyPu-0" value="&lt;span style=&quot;font-size: 14px;&quot;&gt;Call monitor function to check connections&lt;/span&gt;" style="rounded=0;whiteSpace=wrap;html=1;fillColor=none;" parent="WIyWlLk6GJQsqaUBKTNV-1" vertex="1">
          <mxGeometry x="150" y="190" width="161" height="40" as="geometry" />
        </mxCell>
        <mxCell id="P75S9K7HYXraYfd_pyPu-8" style="edgeStyle=orthogonalEdgeStyle;rounded=0;orthogonalLoop=1;jettySize=auto;html=1;exitX=0.5;exitY=1;exitDx=0;exitDy=0;entryX=0.5;entryY=0;entryDx=0;entryDy=0;endArrow=block;endFill=0;" parent="WIyWlLk6GJQsqaUBKTNV-1" source="P75S9K7HYXraYfd_pyPu-4" target="LqbdgGTpBJYTIxLhGGH1-34" edge="1">
          <mxGeometry relative="1" as="geometry" />
        </mxCell>
        <mxCell id="P75S9K7HYXraYfd_pyPu-4" value="&lt;font style=&quot;font-size: 14px;&quot;&gt;Notify the PLC of error&lt;/font&gt;" style="rounded=0;whiteSpace=wrap;html=1;fillColor=none;" parent="WIyWlLk6GJQsqaUBKTNV-1" vertex="1">
          <mxGeometry x="175" y="430" width="120" height="40" as="geometry" />
        </mxCell>
        <mxCell id="P75S9K7HYXraYfd_pyPu-16" style="edgeStyle=orthogonalEdgeStyle;rounded=0;orthogonalLoop=1;jettySize=auto;html=1;exitX=0.5;exitY=1;exitDx=0;exitDy=0;entryX=0.5;entryY=0;entryDx=0;entryDy=0;endArrow=block;endFill=0;" parent="WIyWlLk6GJQsqaUBKTNV-1" source="P75S9K7HYXraYfd_pyPu-9" target="P75S9K7HYXraYfd_pyPu-11" edge="1">
          <mxGeometry relative="1" as="geometry" />
        </mxCell>
        <mxCell id="P75S9K7HYXraYfd_pyPu-9" value="&lt;span style=&quot;font-size: 14px;&quot;&gt;Notify the PLC of ready status&lt;/span&gt;" style="rounded=0;whiteSpace=wrap;html=1;fillColor=none;" parent="WIyWlLk6GJQsqaUBKTNV-1" vertex="1">
          <mxGeometry x="405" y="430" width="120" height="40" as="geometry" />
        </mxCell>
        <mxCell id="P75S9K7HYXraYfd_pyPu-15" style="edgeStyle=orthogonalEdgeStyle;rounded=0;orthogonalLoop=1;jettySize=auto;html=1;exitX=0;exitY=0.5;exitDx=0;exitDy=0;endArrow=block;endFill=0;entryX=0.5;entryY=0;entryDx=0;entryDy=0;" parent="WIyWlLk6GJQsqaUBKTNV-1" source="P75S9K7HYXraYfd_pyPu-11" edge="1" target="uh79flE-hJKGDGNNf9Zj-3">
          <mxGeometry relative="1" as="geometry">
            <mxPoint x="340" y="580" as="targetPoint" />
          </mxGeometry>
        </mxCell>
        <mxCell id="P75S9K7HYXraYfd_pyPu-20" style="edgeStyle=orthogonalEdgeStyle;rounded=0;orthogonalLoop=1;jettySize=auto;html=1;exitX=1;exitY=0.5;exitDx=0;exitDy=0;entryX=0.5;entryY=0;entryDx=0;entryDy=0;endArrow=block;endFill=0;" parent="WIyWlLk6GJQsqaUBKTNV-1" source="P75S9K7HYXraYfd_pyPu-11" target="P75S9K7HYXraYfd_pyPu-18" edge="1">
          <mxGeometry relative="1" as="geometry" />
        </mxCell>
        <mxCell id="P75S9K7HYXraYfd_pyPu-11" value="&lt;font style=&quot;font-size: 14px;&quot;&gt;Is there a reset request&lt;/font&gt;" style="rhombus;whiteSpace=wrap;html=1;fontSize=12;fillColor=none;" parent="WIyWlLk6GJQsqaUBKTNV-1" vertex="1">
          <mxGeometry x="400" y="490" width="130" height="80" as="geometry" />
        </mxCell>
        <mxCell id="P75S9K7HYXraYfd_pyPu-12" value="Yes" style="text;html=1;strokeColor=none;fillColor=none;align=right;verticalAlign=middle;whiteSpace=wrap;rounded=0;fontSize=12;" parent="WIyWlLk6GJQsqaUBKTNV-1" vertex="1">
          <mxGeometry x="540" y="505" width="40.5" height="30" as="geometry" />
        </mxCell>
        <mxCell id="P75S9K7HYXraYfd_pyPu-13" value="No" style="text;html=1;strokeColor=none;fillColor=none;align=left;verticalAlign=middle;whiteSpace=wrap;rounded=0;fontSize=12;" parent="WIyWlLk6GJQsqaUBKTNV-1" vertex="1">
          <mxGeometry x="349.5" y="505" width="30.5" height="30" as="geometry" />
        </mxCell>
        <mxCell id="P75S9K7HYXraYfd_pyPu-22" style="edgeStyle=orthogonalEdgeStyle;rounded=0;orthogonalLoop=1;jettySize=auto;html=1;exitX=0.5;exitY=1;exitDx=0;exitDy=0;endArrow=block;endFill=0;" parent="WIyWlLk6GJQsqaUBKTNV-1" source="P75S9K7HYXraYfd_pyPu-18" edge="1">
          <mxGeometry relative="1" as="geometry">
            <mxPoint x="580" y="710" as="targetPoint" />
          </mxGeometry>
        </mxCell>
        <mxCell id="P75S9K7HYXraYfd_pyPu-18" value="&lt;span style=&quot;font-size: 14px;&quot;&gt;Restart the program&lt;/span&gt;" style="rounded=0;whiteSpace=wrap;html=1;fillColor=none;" parent="WIyWlLk6GJQsqaUBKTNV-1" vertex="1">
          <mxGeometry x="510" y="560" width="140" height="40" as="geometry" />
        </mxCell>
        <mxCell id="uh79flE-hJKGDGNNf9Zj-2" style="edgeStyle=orthogonalEdgeStyle;rounded=0;orthogonalLoop=1;jettySize=auto;html=1;exitX=1;exitY=0.5;exitDx=0;exitDy=0;entryX=0.5;entryY=0;entryDx=0;entryDy=0;endArrow=block;endFill=0;" edge="1" parent="WIyWlLk6GJQsqaUBKTNV-1" source="uh79flE-hJKGDGNNf9Zj-3" target="uh79flE-hJKGDGNNf9Zj-7">
          <mxGeometry relative="1" as="geometry" />
        </mxCell>
        <mxCell id="uh79flE-hJKGDGNNf9Zj-10" style="edgeStyle=orthogonalEdgeStyle;rounded=0;orthogonalLoop=1;jettySize=auto;html=1;exitX=0;exitY=0.5;exitDx=0;exitDy=0;endArrow=block;endFill=0;" edge="1" parent="WIyWlLk6GJQsqaUBKTNV-1" source="uh79flE-hJKGDGNNf9Zj-3">
          <mxGeometry relative="1" as="geometry">
            <mxPoint x="235" y="600" as="targetPoint" />
          </mxGeometry>
        </mxCell>
        <mxCell id="uh79flE-hJKGDGNNf9Zj-3" value="&lt;font style=&quot;font-size: 14px;&quot;&gt;Is there a skill requested&lt;/font&gt;" style="rhombus;whiteSpace=wrap;html=1;fontSize=12;fillColor=none;" vertex="1" parent="WIyWlLk6GJQsqaUBKTNV-1">
          <mxGeometry x="275" y="560" width="130" height="80" as="geometry" />
        </mxCell>
        <mxCell id="uh79flE-hJKGDGNNf9Zj-4" value="Yes" style="text;html=1;strokeColor=none;fillColor=none;align=right;verticalAlign=middle;whiteSpace=wrap;rounded=0;fontSize=12;" vertex="1" parent="WIyWlLk6GJQsqaUBKTNV-1">
          <mxGeometry x="415" y="575" width="40.5" height="30" as="geometry" />
        </mxCell>
        <mxCell id="uh79flE-hJKGDGNNf9Zj-5" value="No" style="text;html=1;strokeColor=none;fillColor=none;align=left;verticalAlign=middle;whiteSpace=wrap;rounded=0;fontSize=12;" vertex="1" parent="WIyWlLk6GJQsqaUBKTNV-1">
          <mxGeometry x="239.5" y="575" width="30.5" height="30" as="geometry" />
        </mxCell>
        <mxCell id="uh79flE-hJKGDGNNf9Zj-6" style="edgeStyle=orthogonalEdgeStyle;rounded=0;orthogonalLoop=1;jettySize=auto;html=1;exitX=0.5;exitY=1;exitDx=0;exitDy=0;endArrow=block;endFill=0;" edge="1" parent="WIyWlLk6GJQsqaUBKTNV-1" source="uh79flE-hJKGDGNNf9Zj-7">
          <mxGeometry relative="1" as="geometry">
            <mxPoint x="455" y="710" as="targetPoint" />
          </mxGeometry>
        </mxCell>
        <mxCell id="uh79flE-hJKGDGNNf9Zj-7" value="&lt;span style=&quot;font-size: 14px;&quot;&gt;Call the skill manager to execute the skill&lt;/span&gt;" style="rounded=0;whiteSpace=wrap;html=1;fillColor=none;" vertex="1" parent="WIyWlLk6GJQsqaUBKTNV-1">
          <mxGeometry x="385" y="630" width="140" height="40" as="geometry" />
        </mxCell>
        <mxCell id="uh79flE-hJKGDGNNf9Zj-11" value="" style="endArrow=block;html=1;rounded=0;endFill=0;" edge="1" parent="WIyWlLk6GJQsqaUBKTNV-1">
          <mxGeometry width="50" height="50" relative="1" as="geometry">
            <mxPoint x="580" y="710" as="sourcePoint" />
            <mxPoint x="230" y="90" as="targetPoint" />
            <Array as="points">
              <mxPoint x="680" y="710" />
              <mxPoint x="680" y="90" />
            </Array>
          </mxGeometry>
        </mxCell>
      </root>
    </mxGraphModel>
  </diagram>
</mxfile>
